<!-- Generator: Adobe Illustrator 17.1.0, SVG Export Plug-In  -->
<svg version="1.1"
	 xmlns="http://www.w3.org/2000/svg" xmlns:xlink="http://www.w3.org/1999/xlink" xmlns:a="http://ns.adobe.com/AdobeSVGViewerExtensions/3.0/"
	 x="0px" y="0px" width="32.002px" height="32px" viewBox="0 0 32.002 32" enable-background="new 0 0 32.002 32"
	 xml:space="preserve">
<defs>
</defs>
<path id="chain_x5F_link_1_" fill="#9257B0" d="M27.601,2l2.4,2.402l-5.666,5.664l-2.4-2.4L27.601,2 M22.615,2.033
	c0.967,0,1.93,0.23,2.811,0.679l-3.637,3.637c-0.039,0.017-0.088,0.023-0.146,0.023c-0.156,0-0.371-0.044-0.553-0.044
	c-0.127,0-0.238,0.021-0.307,0.09l-2.562,2.564c-0.207,0.207,0.023,0.794-0.07,1.005l-3.639,3.638
	c-1.186-2.332-0.809-5.255,1.145-7.206l2.564-2.564C19.433,2.639,21.025,2.033,22.615,2.033 M29.293,6.577
	c1.185,2.332,0.807,5.255-1.145,7.205l-2.562,2.565c-1.213,1.214-2.805,1.819-4.395,1.819c-0.965,0-1.928-0.229-2.809-0.679
	l3.635-3.637c0.039-0.017,0.09-0.023,0.146-0.023c0.158,0,0.371,0.044,0.555,0.044c0.125,0,0.236-0.021,0.305-0.089l2.562-2.564
	c0.207-0.207-0.023-0.794,0.068-1.005L29.293,6.577 M19.502,10.1l2.4,2.402L12.203,22.2l-2.402-2.402L19.502,10.1 M10.779,13.867
	c0.967,0,1.93,0.229,2.811,0.679l-3.637,3.637c-0.037,0.017-0.088,0.022-0.144,0.022c-0.158,0-0.371-0.044-0.555-0.044
	c-0.125,0-0.234,0.021-0.305,0.089l-2.564,2.563c-0.207,0.207,0.023,0.794-0.068,1.005l-3.639,3.638
	c-1.185-2.332-0.807-5.255,1.145-7.206l2.562-2.564C7.599,14.473,9.189,13.867,10.779,13.867 M17.459,18.411
	c1.185,2.332,0.809,5.254-1.143,7.205l-2.564,2.565C12.537,29.395,10.947,30,9.357,30c-0.967,0-1.93-0.23-2.811-0.679l3.637-3.637
	c0.037-0.017,0.088-0.023,0.147-0.023c0.156,0,0.369,0.044,0.553,0.044c0.125,0,0.236-0.021,0.305-0.09l2.563-2.563
	c0.207-0.207-0.022-0.793,0.07-1.004L17.459,18.411 M7.668,21.933l2.4,2.403L4.402,30l-2.4-2.401L7.668,21.933 M27.601,0
	c-0.529,0-1.039,0.211-1.414,0.586l-0.184,0.185c-1.064-0.483-2.228-0.737-3.389-0.737c-2.197,0-4.26,0.854-5.811,2.405
	l-2.562,2.564c-1.865,1.862-2.682,4.441-2.328,6.944c-0.377-0.053-0.756-0.08-1.135-0.08c-2.193,0-4.256,0.854-5.809,2.404
	l-2.562,2.564c-2.434,2.435-3.084,6.089-1.67,9.199l-0.15,0.149c-0.781,0.781-0.781,2.047,0,2.828l2.4,2.401
	C3.363,31.789,3.873,32,4.402,32c0.531,0,1.039-0.211,1.414-0.586l0.152-0.152C7.035,31.746,8.197,32,9.357,32
	c2.193,0,4.258-0.854,5.809-2.404l2.564-2.565c1.863-1.863,2.68-4.442,2.326-6.945c0.377,0.054,0.756,0.081,1.135,0.081
	c2.195,0,4.258-0.854,5.809-2.405l2.562-2.564C31.998,12.764,32.646,9.11,31.234,6l0.182-0.184c0.781-0.78,0.781-2.047,0.002-2.828
	l-2.4-2.402C28.642,0.211,28.133,0,27.601,0L27.601,0L27.601,0z"/>
</svg>
