<!-- Generator: Adobe Illustrator 17.1.0, SVG Export Plug-In  -->
<svg version="1.1"
	 xmlns="http://www.w3.org/2000/svg" xmlns:xlink="http://www.w3.org/1999/xlink" xmlns:a="http://ns.adobe.com/AdobeSVGViewerExtensions/3.0/"
	 x="0px" y="0px" width="32px" height="32px" viewBox="0 0 32 32" enable-background="new 0 0 32 32" xml:space="preserve">
<defs>
</defs>
<g>
	<rect x="5" y="22" fill="#000000" width="12" height="1"/>
	<rect x="5" y="26" fill="#000000" width="12" height="1"/>
	<path fill="#000000" d="M30.828,18.171l-3.639-3.64C27.722,13.256,28,11.886,28,10.5C28,4.71,23.29,0,17.5,0
		C12.571,0,8.425,3.413,7.301,8H2c-1.105,0-2,0.896-2,2v20c0,1.104,0.895,2,2,2h18c1.104,0,2-0.896,2-2v-9.343l3.172,3.171
		C25.926,24.583,26.931,25,28,25c1.069,0,2.074-0.417,2.829-1.173C31.583,23.073,32,22.069,32,21S31.583,18.927,30.828,18.171z
		 M20,30H2V10h5.525C7.517,10.167,7.5,10.331,7.5,10.5c0,1.232,0.235,2.409,0.644,3.5H5v1h3.582c0.58,1.144,1.372,2.16,2.326,3H5v1
		h7.258c1.526,0.945,3.318,1.5,5.242,1.5c0.848,0,1.685-0.122,2.5-0.334V30z M29.414,22.414C29.024,22.805,28.512,23,28,23
		c-0.512,0-1.024-0.195-1.414-0.586l-4.664-4.665c-1.29,0.788-2.8,1.25-4.421,1.25c-3.248,0-6.068-1.823-7.5-4.502V14H9.76
		C9.276,12.932,9,11.749,9,10.5C9,5.806,12.806,2,17.5,2c4.694,0,8.5,3.806,8.5,8.5c0,1.622-0.462,3.132-1.251,4.421l4.665,4.664
		C30.195,20.367,30.195,21.633,29.414,22.414z"/>
	<path fill="#000000" d="M17.5,4C13.91,4,11,6.91,11,10.5c0,3.59,2.91,6.5,6.5,6.5c1.291,0,2.492-0.381,3.504-1.031
		c0.788-0.507,1.459-1.177,1.965-1.965C23.619,12.992,24,11.792,24,10.5C24,6.91,21.09,4,17.5,4z M22.128,13.463
		c-0.426,0.663-1.002,1.239-1.664,1.665C19.575,15.698,18.55,16,17.5,16c-3.033,0-5.5-2.467-5.5-5.5C12,7.467,14.467,5,17.5,5
		c3.033,0,5.5,2.467,5.5,5.5C23,11.55,22.698,12.575,22.128,13.463z"/>
</g>
</svg>
