<!-- Generator: Adobe Illustrator 18.0.0, SVG Export Plug-In  -->
<svg version="1.1"
	 xmlns="http://www.w3.org/2000/svg" xmlns:xlink="http://www.w3.org/1999/xlink" xmlns:a="http://ns.adobe.com/AdobeSVGViewerExtensions/3.0/"
	 x="0px" y="0px" width="433px" height="37.8px" viewBox="0 0 433 37.8" enable-background="new 0 0 433 37.8" xml:space="preserve"
	>
<defs>
</defs>
<g>
	<g>
		<path fill="#FFFFFF" d="M0,35.5V33l2.9-0.3c0.7-0.1,0.7-0.2,0.7-0.9V5.6c0-0.7-0.1-0.9-0.7-0.9L0,4.3V1.8h13.9
			c11.7,0,16.7,6.3,16.7,16.3c0,10.3-5.4,17.4-17.5,17.4H0z M13.1,32.1c8.9,0,13.1-5,13.1-13.4c0-10.4-4.7-13.6-12.8-13.6H8v26.9
			H13.1z"/>
		<path fill="#FFFFFF" d="M35.2,18.4c0-9.9,5.6-17.3,16.2-17.3c10.6,0,15.3,7.4,15.3,16.8c0,11-5.3,18.1-16,18.1
			C39.9,36,35.2,28.7,35.2,18.4z M62.3,18.4c0-8.9-4.2-13.6-11-13.6c-6.8,0-11.7,4.7-11.7,13.7c0,9.4,4.5,14,11.4,14
			C57.7,32.5,62.3,28,62.3,18.4z"/>
		<path fill="#FFFFFF" d="M98.3,33.6c-2.5,1.7-6.9,2.5-11.2,2.5c-11.4,0-15.9-7.2-15.9-17.4C71.2,8.5,76.8,1.2,88,1.2
			c4.1,0,8,1,10.3,2.5v7.4L95.1,11l-0.8-4.4c0-0.4-0.1-0.7-0.6-0.8c-1.6-0.6-3.7-1-5.9-1c-7.3,0-12.1,4.8-12.1,14
			c0,9.1,4.5,13.9,11.7,13.9c2.1,0,4.7-0.2,6.5-1c0.4-0.1,0.6-0.3,0.7-0.8l0.7-4.2h3V33.6z"/>
		<path fill="#FFFFFF" d="M127.5,5.6c0-0.7-0.1-0.9-0.7-0.9l-2.9-0.3V1.8h11.5v2.5l-3.1,0.4c-0.7,0.1-0.7,0.2-0.7,0.9v18.7
			c0,8.1-4.5,11.8-12.4,11.8c-8.7,0-12.1-4.1-12.1-11.9V5.6c0-0.7-0.1-0.9-0.7-0.9l-2.9-0.3V1.8h11.8v2.5L112,4.7
			c-0.7,0.1-0.7,0.2-0.7,0.9v18.1c0,6.3,2.7,8.8,8.1,8.8c5.5,0,8.1-2.2,8.1-8.7V5.6z"/>
		<path fill="#FFFFFF" d="M166.6,35.5V33l3.9-0.3c0.7,0,0.7-0.2,0.7-0.9V8.6l-9.4,18.9h-4.5l-9-18.9v23c0,0.7,0,0.8,0.7,0.9l4,0.4
			v2.5h-12.7V33l2.9-0.3c0.7-0.1,0.7-0.2,0.7-0.9V5.6c0-0.7-0.1-0.9-0.7-0.9l-2.9-0.3V1.8h9l10.2,22.1l10.6-22.1h8.9v2.5l-3.1,0.4
			c-0.7,0.1-0.7,0.2-0.7,0.9v26.2c0,0.6,0.1,0.8,0.7,0.9l3.1,0.4v2.5H166.6z"/>
		<path fill="#FFFFFF" d="M184.7,35.5V33l2.9-0.3c0.7-0.1,0.7-0.2,0.7-0.9V5.6c0-0.7-0.1-0.9-0.7-0.9l-2.9-0.3V1.8h23.4v7.7
			l-3.2-0.2l-0.7-3.6c-0.1-0.5-0.3-0.6-0.8-0.6h-10.8v11.7h12.4v3.4h-12.4v12h11.8c0.5,0,0.7,0,0.7-0.5l0.7-4h3.1v7.9H184.7z"/>
		<path fill="#FFFFFF" d="M263.5,35.5v-2.6l4.8-0.3c0.7,0,0.7-0.2,0.7-0.9V5.1h-7.2c-0.5,0-0.7,0-0.7,0.5l-0.7,4h-3.1V1.8h27.9v7.9
			h-3.1l-0.7-4c-0.1-0.5-0.2-0.5-0.7-0.5h-7.2v26.6c0,0.7,0,0.8,0.7,0.9l5.1,0.4v2.6H263.5z"/>
		<path fill="#FFFFFF" d="M304.3,35.5V33l3.8-0.4l-2.5-7.4h-13l-2.5,7.4l3.8,0.4v2.5h-10.7V33l2-0.5c0.7-0.2,1-0.3,1.2-0.9
			l10.2-29.8h5.4l10.4,29.9c0.2,0.6,0.6,0.7,1.1,0.8l2.1,0.5v2.5H304.3z M299.2,5.4l-5.5,16.4h10.9L299.2,5.4z"/>
		<path fill="#FFFFFF" d="M319.9,35.5v-2.6l4.8-0.3c0.7,0,0.7-0.2,0.7-0.9V5.1h-7.2c-0.5,0-0.7,0-0.7,0.5l-0.7,4h-3.1V1.8h27.9v7.9
			h-3.1l-0.7-4c-0.1-0.5-0.2-0.5-0.7-0.5h-7.2v26.6c0,0.7,0,0.8,0.7,0.9l5.1,0.4v2.6H319.9z"/>
		<path fill="#FFFFFF" d="M345.5,35.5V33l3.4-0.3c0.7,0,0.7-0.2,0.7-0.9V5.6c0-0.7-0.1-0.9-0.7-0.9l-3.4-0.3V1.8h12.8v2.5l-3.6,0.4
			C354,4.8,354,4.9,354,5.6v26.1c0,0.7,0,0.8,0.7,0.9l3.6,0.4v2.5H345.5z"/>
		<path fill="#FFFFFF" d="M363,18.4c0-9.9,5.6-17.3,16.2-17.3c10.6,0,15.3,7.4,15.3,16.8c0,11-5.3,18.1-16,18.1
			C367.8,36,363,28.7,363,18.4z M390.1,18.4c0-8.9-4.2-13.6-11-13.6c-6.8,0-11.7,4.7-11.7,13.7c0,9.4,4.5,14,11.4,14
			C385.6,32.5,390.1,28,390.1,18.4z"/>
		<path fill="#FFFFFF" d="M424.2,35.5l-17-28.2v24.3c0,0.7,0,0.8,0.7,0.9L411,33v2.5h-11.3V33l2.9-0.3c0.7-0.1,0.7-0.2,0.7-0.9V5.6
			c0-0.7-0.1-0.9-0.7-0.9l-2.9-0.3V1.7h9.1l16.6,28V5.6c0-0.7-0.1-0.9-0.7-0.9l-2.9-0.3V1.8H433v2.5l-3.1,0.4
			c-0.7,0.1-0.7,0.2-0.7,0.9v29.9H424.2z"/>
	</g>
	<path id="books_2_" fill="#FFFFFF" d="M247.8,2.4l4.7,33.1h-2.4l-4.7-33.1H247.8 M243.1,2.4l4.7,33.1h-2.4l-4.7-33.1H243.1
		 M239.5,2.4v2.4h-9.5V2.4H239.5 M228.9,2.4v2.4h-9.5V2.4H228.9 M239.5,5.9v26h-9.5v-26H239.5 M232.4,9.5h4.7V8.3h-4.7V9.5
		 M232.4,11.8h4.7v-1.2h-4.7V11.8 M228.9,5.9v26h-9.5v-26H228.9 M221.8,9.5h4.7V8.3h-4.7V9.5 M221.8,11.8h4.7v-1.2h-4.7V11.8
		 M239.5,33.1v2.4h-9.5v-2.4H239.5 M228.9,33.1v2.4h-9.5v-2.4H228.9 M247.8,0h-28.4c-1.3,0-2.4,1.1-2.4,2.4v33.1
		c0,1.3,1.1,2.4,2.4,2.4h20.1c1.3,0,2.4-1.1,2.4-2.4v-8.1l1.2,8.4c0.2,1.2,1.2,2,2.3,2h7.1c0.7,0,1.3-0.3,1.8-0.8
		c0.4-0.5,0.7-1.2,0.6-1.9L250.1,2C250,0.9,249,0,247.8,0L247.8,0z"/>
</g>
</svg>
