<!-- Generator: Adobe Illustrator 17.1.0, SVG Export Plug-In  -->
<svg version="1.1"
	 xmlns="http://www.w3.org/2000/svg" xmlns:xlink="http://www.w3.org/1999/xlink" xmlns:a="http://ns.adobe.com/AdobeSVGViewerExtensions/3.0/"
	 x="0px" y="0px" width="25px" height="32px" viewBox="0 0 25 32" enable-background="new 0 0 25 32" xml:space="preserve">
<defs>
</defs>
<g>
	<rect x="5" y="26" fill="#231F20" width="15" height="1"/>
	<rect x="5" y="23" fill="#231F20" width="15" height="1"/>
	<rect x="5" y="20" fill="#231F20" width="15" height="1"/>
	<path fill="#231F20" d="M24.998,10.592c0-0.521-0.202-1.031-0.584-1.414l-8.5-8.592C15.531,0.203,15.019,0,14.499,0
		C14.45,0,5.787,0,4,0v2h10v9h9v19H2V16H0v14c0,1.104,0.895,2,2,2h21c1.104,0,2-0.896,2-2V10.592H24.998z M15,10V2l7.999,8H15z"/>
</g>
<rect fill="#231F20" width="2" height="16"/>
<rect x="1" fill="#231F20" width="3" height="2"/>
</svg>
