<!-- Generator: Adobe Illustrator 17.0.0, SVG Export Plug-In  -->
<svg version="1.1"
	 xmlns="http://www.w3.org/2000/svg" xmlns:xlink="http://www.w3.org/1999/xlink" xmlns:a="http://ns.adobe.com/AdobeSVGViewerExtensions/3.0/"
	 x="0px" y="0px" width="32px" height="32px" viewBox="0 0 32 32" enable-background="new 0 0 32 32" xml:space="preserve">
<defs>
</defs>
<path fill="#231F20" d="M31.414,10.529l-9.943-9.943C21.08,0.195,20.568,0,20.057,0c-0.512,0-1.023,0.195-1.414,0.585
	c-1.519,1.518-2.261,3.61-2.107,5.862l-3.276,3.274c-0.638-0.123-1.278-0.186-1.915-0.186c-1.926,0-3.957,0.248-5.758,2.05
	c-0.781,0.781-0.781,2.047,0,2.828l2.819,2.82l-8.05,11.627c-0.55,0.795-0.453,1.869,0.23,2.553C0.973,31.801,1.485,32,2.001,32
	c0.395,0,0.793-0.117,1.138-0.355l11.627-8.05l2.82,2.819C17.977,26.805,18.488,27,19,27c0.512,0,1.023-0.195,1.414-0.586
	c1.382-1.382,2.75-3.804,1.88-7.69l3.26-3.261c0.187,0.013,0.372,0.019,0.557,0.019c2.052,0,3.936-0.755,5.305-2.126
	C32.195,12.576,32.195,11.31,31.414,10.529z M2,30l8.43-12.176l3.745,3.747L2,30z M26.11,13.482c-0.422,0-0.851-0.042-1.278-0.125
	L20.06,18.13c0.834,2.606,0.769,5.041-1.06,6.87L7,13c1.241-1.241,2.588-1.464,4.344-1.464c0.834,0,1.688,0.136,2.525,0.403
	l4.773-4.771C18.271,5.254,18.723,3.333,20.057,2L30,11.943C28.966,12.979,27.577,13.482,26.11,13.482z"/>
</svg>
