<!-- Generator: Adobe Illustrator 17.1.0, SVG Export Plug-In  -->
<svg version="1.1"
	 xmlns="http://www.w3.org/2000/svg" xmlns:xlink="http://www.w3.org/1999/xlink" xmlns:a="http://ns.adobe.com/AdobeSVGViewerExtensions/3.0/"
	 x="0px" y="0px" width="32px" height="32px" viewBox="0 0 32 32" enable-background="new 0 0 32 32" xml:space="preserve">
<defs>
</defs>
<path id="info_1_" fill="#354050" d="M16,2c7.73,0,14,6.268,14,14c0,7.734-6.27,14-14,14C8.268,30,2,23.734,2,16
	C2,8.268,8.268,2,16,2 M15.972,11.074c1.069,0,2.028-0.889,2.028-2s-0.904-2-1.974-2c-1.068,0-2.026,0.889-2.026,2
	S14.904,11.074,15.972,11.074 M13,16h2v6h-2v3h7v-3h-2v-9h-5V16 M16,0C7.178,0,0,7.178,0,16s7.178,16,16,16c8.822,0,16-7.178,16-16
	S24.822,0,16,0L16,0z"/>
</svg>