<!-- Generator: Adobe Illustrator 18.0.0, SVG Export Plug-In  -->
<svg version="1.1"
	 xmlns="http://www.w3.org/2000/svg" xmlns:xlink="http://www.w3.org/1999/xlink" xmlns:a="http://ns.adobe.com/AdobeSVGViewerExtensions/3.0/"
	 x="0px" y="0px" width="32px" height="32px" viewBox="0 0 32 32" enable-background="new 0 0 32 32" xml:space="preserve">
<defs>
</defs>
<g>
	<circle fill="#cccccc" cx="12.4" cy="11.5" r="1.9"/>
	<circle fill="#cccccc" cx="19.6" cy="11.5" r="1.9"/>
	<path fill="#cccccc" d="M16,17.8c-3.7,0-6.9,2.1-8.3,5.2l1.9,0.8c1-2.4,3.5-4,6.4-4c2.8,0,5.3,1.6,6.3,4l1.9-0.8
		C22.9,19.8,19.6,17.8,16,17.8z"/>
	<path fill="#cccccc" d="M16,0C7.2,0,0,7.2,0,16s7.2,16,16,16c8.8,0,16-7.2,16-16S24.8,0,16,0z M16,30C8.3,30,2,23.7,2,16
		C2,8.3,8.3,2,16,2c7.7,0,14,6.3,14,14C30,23.7,23.7,30,16,30z"/>
</g>
</svg>
