<!-- Generator: Adobe Illustrator 17.1.0, SVG Export Plug-In  -->
<svg version="1.1"
	 xmlns="http://www.w3.org/2000/svg" xmlns:xlink="http://www.w3.org/1999/xlink" xmlns:a="http://ns.adobe.com/AdobeSVGViewerExtensions/3.0/"
	 x="0px" y="0px" width="31.989px" height="32px" viewBox="0 0 31.989 32" enable-background="new 0 0 31.989 32"
	 xml:space="preserve">
<defs>
</defs>
<g>
	<path fill="#97894f" d="M31.023,22.406l-9.76-18.588C19.988,1.392,18.068,0,15.994,0c-1.218,0-3.523,0.496-5.268,3.815
		L0.965,22.408c-1.225,2.333-1.287,4.729-0.171,6.576C1.953,30.9,4.236,32,7.058,32h17.873c2.822,0,5.105-1.1,6.264-3.017
		C32.311,27.137,32.248,24.739,31.023,22.406z M24.931,30H7.058c-4.3,0-6.244-3.001-4.322-6.662l9.761-18.592
		C13.46,2.915,14.727,2,15.994,2c1.267,0,2.536,0.917,3.497,2.748l9.76,18.588C31.175,26.998,29.231,30,24.931,30z"/>
	<circle fill="#97894f" cx="15.995" cy="24.5" r="1.5"/>
	<polygon fill="#97894f" points="14.495,21 17.495,21 18.495,11 13.495,11 	"/>
</g>
</svg>